<?xml version="1.0" standalone="no"?>
<!DOCTYPE svg PUBLIC "-//W3C//DTD SVG 20010904//EN"
 "http://www.w3.org/TR/2001/REC-SVG-20010904/DTD/svg10.dtd">
<svg version="1.0" xmlns="http://www.w3.org/2000/svg"
 width="345.000000pt" height="345.000000pt" viewBox="0 0 345.000000 345.000000"
 preserveAspectRatio="xMidYMid meet">
<metadata>
Created by potrace 1.11, written by Peter Selinger 2001-2013
</metadata>
<g transform="translate(0.000000,345.000000) scale(0.100000,-0.100000)"
fill="#000000" stroke="none">
<path d="M504 2505 l1 -90 365 -2 c201 -1 368 -2 372 -2 4 -1 -103 -193 -237
-427 -135 -235 -245 -431 -245 -435 0 -5 -4 -9 -9 -9 -5 0 -11 -8 -14 -17 -3
-10 -20 -40 -36 -68 -17 -27 -34 -57 -38 -65 -5 -9 -44 -78 -88 -155 l-80
-140 -1 -83 -2 -82 512 0 512 0 -1 87 0 88 -393 5 -392 5 125 219 c69 120 125
222 125 227 0 5 4 9 8 9 4 0 13 12 20 28 6 15 21 43 33 62 12 19 111 193 221
385 110 193 205 356 211 363 11 14 19 181 8 183 -3 1 -225 2 -492 3 l-487 1 2
-90z"/>
<path d="M1800 2590 c-5 -3 -8 -377 -8 -833 l-1 -827 105 0 c101 0 104 1 105
23 0 12 0 185 0 385 l0 362 334 0 335 0 0 -385 0 -386 106 3 106 3 -1 795 c0
437 0 811 -1 830 l0 35 -92 -1 c-51 -1 -99 -2 -105 -3 -10 -1 -13 -79 -13
-356 l0 -355 -335 0 -334 0 0 351 c1 193 -2 353 -5 357 -8 7 -184 9 -196 2z"/>
</g>
</svg>
